# xmcd CD database file
#
# Track frame offsets:
#	150
#	3085
#	27655
#	46580
#	73175
#	98275
#	123405
#	127725
#	146775
#	172662
#	192827
#	216830
#	244762
#	273375
#	299560
#	327312
#
# Disc length: 4437 seconds
#
# Revision: 0
# Processed by: cddbd v1.5PL3 Copyright (c) Steve Scherf et al.
# Submitted via: CDex 1.50Beta6
#
DISCID=e0115310
DTITLE=ケツメイシ - ケツノポリス２
DYEAR=2002
DGENRE=Blues
TTITLE0=前出し
TTITLE1=手紙 過去〜
TTITLE2=ビルの谷間
TTITLE3=高値の花
TTITLE4=人は
TTITLE5=侍ジャポン
TTITLE6=中出し
TTITLE7=手紙 〜現在〜
TTITLE8=雲の上から
TTITLE9=ア・セッションプリーズ
TTITLE10=ケツメの作り方
TTITLE11=よる☆かぜ
TTITLE12=手紙 〜未来
TTITLE13=わすれもの
TTITLE14=トモダチ
TTITLE15=後出し
EXTD=YEAR: 2002
EXTT0=
EXTT1=
EXTT2=
EXTT3=
EXTT4=
EXTT5=
EXTT6=
EXTT7=
EXTT8=
EXTT9=
EXTT10=
EXTT11=
EXTT12=
EXTT13=
EXTT14=
EXTT15=
PLAYORDER=
